<svg width="264" height="220" viewBox="0 0 264 220" fill="none" xmlns="http://www.w3.org/2000/svg">
<path fill-rule="evenodd" clip-rule="evenodd" d="M264 22C264 9.9 254.1 0 242 0H22C9.9 0 0 9.9 0 22V198C0 210.1 9.9 220 22 220H242C254.1 220 264 210.1 264 198V22ZM206.8 176H47.3C40.7 176 36.85 168.85 40.15 163.35L88.55 79.2C90.75 75.35 95.7 75.35 97.9 79.2L127.05 129.25C129.25 132.55 134.2 133.1 136.4 129.8L160.05 95.7C162.25 92.4 167.2 92.4 169.4 95.7L212.85 165C216.15 169.95 212.85 176 206.8 176ZM192.5 77C180.4 77 170.5 67.1 170.5 55C170.5 42.9 180.4 33 192.5 33C204.6 33 214.5 42.9 214.5 55C214.5 67.1 204.6 77 192.5 77Z" fill="#706E6B"/>
</svg>
