<svg width="68" height="56" viewBox="0 0 68 56" fill="none" xmlns="http://www.w3.org/2000/svg">
<path fill-rule="evenodd" clip-rule="evenodd" d="M67.2308 5.84608C67.2308 2.79992 64.7385 0.307617 61.6924 0.307617H6.30775C3.26159 0.307617 0.769287 2.79992 0.769287 5.84608V50.1538C0.769287 53.1999 3.26159 55.6922 6.30775 55.6922H61.6924C64.7385 55.6922 67.2308 53.1999 67.2308 50.1538V5.84608ZM52.8308 44.6153H12.677C11.0154 44.6153 10.0462 42.8153 10.877 41.4307L23.0616 20.2461C23.6154 19.2768 24.8616 19.2768 25.4154 20.2461L32.7539 32.8461C33.3077 33.6768 34.5539 33.8153 35.1077 32.9845L41.0616 24.3999C41.6154 23.5692 42.8616 23.5692 43.4154 24.3999L54.3539 41.8461C55.1847 43.0922 54.3539 44.6153 52.8308 44.6153ZM49.2308 19.6922C46.1847 19.6922 43.6924 17.1999 43.6924 14.1538C43.6924 11.1076 46.1847 8.61531 49.2308 8.61531C52.277 8.61531 54.7693 11.1076 54.7693 14.1538C54.7693 17.1999 52.277 19.6922 49.2308 19.6922Z" fill="#D0D0D0"/>
</svg>
