<svg width="104" height="104" viewBox="0 0 104 104" fill="none" xmlns="http://www.w3.org/2000/svg">
<path d="M65.2168 21.6667C69.4493 22.4925 73.3391 24.5625 76.3884 27.6118C79.4377 30.661 81.5077 34.5509 82.3334 38.7834M65.2168 4.33337C74.0103 5.31026 82.2103 9.24813 88.4705 15.5004C94.7306 21.7527 98.6788 29.9477 99.6668 38.74M95.3334 73.32V86.32C95.3383 87.5269 95.0911 88.7214 94.6077 89.8272C94.1242 90.933 93.4151 91.9256 92.5258 92.7414C91.6365 93.5573 90.5866 94.1785 89.4434 94.5651C88.3001 94.9517 87.0887 95.0953 85.8868 94.9867C72.5524 93.5378 59.7438 88.9813 48.4901 81.6834C38.02 75.0302 29.1432 66.1534 22.4901 55.6834C15.1667 44.3786 10.6092 31.5077 9.18678 18.1134C9.0785 16.9151 9.22091 15.7073 9.60495 14.5671C9.989 13.4268 10.6063 12.379 11.4174 11.4904C12.2286 10.6018 13.2159 9.89178 14.3165 9.40564C15.4172 8.91949 16.6069 8.66784 17.8101 8.66671H30.8101C32.9131 8.64601 34.9519 9.39071 36.5464 10.762C38.141 12.1333 39.1824 14.0376 39.4768 16.12C40.0255 20.2803 41.0431 24.3652 42.5101 28.2967C43.0931 29.8477 43.2193 31.5333 42.8737 33.1539C42.5281 34.7744 41.7252 36.2619 40.5601 37.44L35.0568 42.9434C41.2255 53.7921 50.2081 62.7746 61.0568 68.9434L66.5601 63.44C67.7383 62.275 69.2258 61.472 70.8463 61.1264C72.4668 60.7808 74.1524 60.907 75.7034 61.49C79.635 62.9571 83.7198 63.9747 87.8801 64.5234C89.9851 64.8203 91.9075 65.8806 93.2818 67.5025C94.656 69.1244 95.3862 71.1949 95.3334 73.32Z" stroke="black" stroke-width="1.5" stroke-linecap="round" stroke-linejoin="round"/>
</svg>
